:SAMPLES-PER-SECOND 30
:FULLY-SPECIFIED
:DEGREES
583
root  10.0934 37.929 8.00865 111.015 -85.1265 -120.198
RightUpLeg  -12.9005 -8.69775 3.82428
RightLeg  26.7376 1.97332 0.904426
RightFoot  -4.35903 0.227844 -4.21634
RightToes  -2.21189e-009 0 -3.6325e-017
Spine  5.86954 -3.80901 10.3636
Spine1  9.25679 -2.83341 2.9703
HEad  -13.8901 5.53982 -10.0328
LeftShoulder1  0.35212 2.45873 -27.5391
LeftArm  -9.83945 5.7755 -42.8479
LeftForeArm  51.721 -78.4169 -70.7385
LeftHand  0.00765103 2.62738 -0.960262
RightShoulder  -0.401562 -4.79234 24.2091
RightArm  -15.1793 -19.4536 31.8637
RightForeArm  102.348 72.6087 138.736
RightHand  -0.125169 0.216682 -2.62711
LeftUpLeg  -3.23167 -1.63822 7.60799
LeftLeg  64.6214 -2.65371 -5.51691
LeftFoot  8.57463 1.34706 -7.96175
LeftToes  -4.03379e-008 1.61488e-010 -5.81581e-011
584
root  8.98452 38.2558 7.71327 113.361 -85.4489 -122.631
RightUpLeg  -9.72914 -9.03544 3.38138
RightLeg  24.7595 2.01624 1.12399
RightFoot  -5.78579 0.164143 -4.18513
RightToes  -2.21189e-009 0 -3.6325e-017
Spine  6.13388 -3.37885 10.3965
Spine1  8.58035 -2.32689 2.61196
HEad  -13.6603 4.9956 -10.5185
LeftShoulder1  0.327432 2.54303 -27.9387
LeftArm  -9.86989 5.80779 -42.2696
LeftForeArm  51.7812 -78.4327 -71.3015
LeftHand  0.0264837 2.65108 -1.7735
RightShoulder  -0.326468 -4.55839 23.8827
RightArm  -15.2325 -19.0149 32.2113
RightForeArm  102.209 72.7674 138.296
RightHand  -0.100002 -0.117254 -2.20654
LeftUpLeg  -7.37301 -1.48607 6.57495
LeftLeg  65.8771 -1.95318 -4.12714
LeftFoot  6.40595 0.852051 -5.73702
LeftToes  -4.03379e-008 1.61488e-010 -5.81581e-011
585
root  7.8819 38.5868 7.45762 121.579 -85.7129 -130.901
RightUpLeg  -6.57688 -8.99658 2.58263
RightLeg  22.603 2.39376 1.64124
RightFoot  -6.78192 0.114996 -4.03477
RightToes  -2.21189e-009 0 -3.6325e-017
Spine  5.9136 -2.81518 10.5783
Spine1  8.48521 -1.61916 1.66468
HEad  -12.6477 4.71945 -11.0233
LeftShoulder1  0.372359 2.39645 -27.4603
LeftArm  -10.3327 6.03332 -42.4178
LeftForeArm  52.1881 -78.4576 -71.6171
LeftHand  0.0225358 2.69976 -1.75492
RightShoulder  -0.351044 -4.64629 23.6964
RightArm  -15.2848 -18.1116 32.8135
RightForeArm  101.354 72.9559 137.665
RightHand  -0.106791 -0.0971321 -2.33534
LeftUpLeg  -10.8203 -1.411 5.09828
LeftLeg  64.1704 -2.09461 -4.07292
LeftFoot  4.60957 0.690011 -5.10247
LeftToes  -4.03379e-008 1.61488e-010 -5.81581e-011
586
root  6.7822 38.8273 7.20136 129.779 -85.8228 -139.097
RightUpLeg  -3.58754 -9.3056 1.76639
RightLeg  20.6547 3.06497 2.35328
RightFoot  -8.03504 0.0559037 -3.80908
RightToes  -2.21189e-009 0 -3.6325e-017
Spine  6.05048 -2.42152 10.7467
Spine1  7.68909 -1.08609 0.729031
HEad  -12.7273 5.50057 -10.9222
LeftShoulder1  0.34434 2.47635 -27.3708
LeftArm  -10.7742 6.3171 -42.0531
LeftForeArm  53.6265 -78.5512 -73.2964
LeftHand  0.0223823 2.67899 -2.04883
RightShoulder  -0.319893 -4.54335 23.6659
RightArm  -15.2094 -17.7231 33.5094
RightForeArm  101.405 72.7955 138.109
RightHand  -0.150648 0.182371 -3.18558
LeftUpLeg  -13.6583 -1.7189 3.76519
LeftLeg  60.1784 -2.95071 -5.00798
LeftFoot  2.10032 0.436792 -3.82664
LeftToes  -4.03379e-008 1.61488e-010 -5.81581e-011
587
root  5.68644 38.9914 6.94981 140.537 -85.9093 -149.272
RightUpLeg  -1.53637 -9.46452 1.00098
RightLeg  19.1683 3.66203 2.74454
RightFoot  -9.45183 -0.00298726 -3.70606
RightToes  -2.21189e-009 0 -3.6325e-017
Spine  5.1909 -1.84432 10.0789
Spine1  7.54482 -0.758816 0.704228
HEad  -12.7692 5.90017 -10.937
LeftShoulder1  0.276016 2.6898 -27.7425
LeftArm  -11.3691 6.34078 -41.5797
LeftForeArm  55.5813 -78.6611 -75.5305
LeftHand  0.027367 2.69099 -1.81787
RightShoulder  -0.287821 -4.44858 23.2914
RightArm  -15.1519 -17.0135 34.2355
RightForeArm  101.946 72.7629 138.272
RightHand  -0.140471 -0.0722147 -3.05891
LeftUpLeg  -16.2728 -1.88666 2.52382
LeftLeg  54.0054 -3.93405 -5.33869
LeftFoot  -0.210854 0.356281 -3.6584
LeftToes  -4.03379e-008 1.61488e-010 -5.81581e-011
588
root  4.61414 39.1414 6.68743 151.615 -85.5527 -160.179
RightUpLeg  0.950208 -9.34107 0.51637
RightLeg  17.4904 4.41032 2.77374
RightFoot  -10.3014 -0.033657 -3.96933
RightToes  -2.21189e-009 0 -3.6325e-017
Spine  5.01223 -1.22979 9.7785
Spine1  7.18034 -0.148779 -0.153108
HEad  -12.9243 6.51992 -10.2484
LeftShoulder1  0.28915 2.64411 -27.474
LeftArm  -11.9918 6.34246 -41.4874
LeftForeArm  57.6346 -78.7562 -77.357
LeftHand  0.04703 1.90273 -1.96597
RightShoulder  -0.29282 -4.46344 23.3501
RightArm  -15.2058 -16.4341 34.7427
RightForeArm  102.5 72.679 138.573
RightHand  -0.113705 -0.563689 -2.64766
LeftUpLeg  -17.2747 -1.37934 1.79045
LeftLeg  45.4174 -4.68283 -4.7078
LeftFoot  -1.54767 0.344114 -3.90748
LeftToes  -4.03379e-008 1.61488e-010 -5.81581e-011
589
root  3.5751 39.235 6.46298 157.194 -85.3109 -165.637
RightUpLeg  3.32968 -9.33199 0.173683
RightLeg  16.0239 4.79681 2.67118
RightFoot  -11.0716 -0.064383 -4.44845
RightToes  -2.21189e-009 0 -3.6325e-017
Spine  5.04963 -0.911564 9.65887
Spine1  6.78851 0.198106 -1.17751
HEad  -13.4694 6.03561 -9.02934
LeftShoulder1  0.304907 2.59084 -27.2235
LeftArm  -12.6589 6.23335 -41.4015
LeftForeArm  58.6701 -78.7966 -78.982
LeftHand  0.0362347 1.68491 -1.43057
RightShoulder  -0.281638 -4.42578 23.3515
RightArm  -15.1603 -15.8298 35.4031
RightForeArm  101.954 72.7623 138.273
RightHand  -0.165701 0.406617 -3.36938
LeftUpLeg  -17.4586 -0.743482 1.2828
LeftLeg  35.1068 -4.78037 -3.26286
LeftFoot  -0.809947 0.370066 -3.95012
LeftToes  -4.03379e-008 1.61488e-010 -5.81581e-011
590
root  2.54861 39.3125 6.24587 160.936 -84.9645 -168.922
RightUpLeg  5.38581 -9.07782 0.140014
RightLeg  14.318 4.80945 2.40897
RightFoot  -11.6818 -0.0936798 -5.00833
RightToes  -2.21189e-009 0 -3.6325e-017
Spine  4.44444 -0.544545 9.19197
Spine1  7.01071 0.435879 -1.73835
HEad  -15.7818 5.5195 -6.07102
LeftShoulder1  0.301718 2.59184 -26.914
LeftArm  -13.3547 6.04978 -41.5573
LeftForeArm  59.8233 -78.8352 -80.3541
LeftHand  0.0180858 2.26779 -1.18361
RightShoulder  -0.308146 -4.51262 23.4222
RightArm  -14.9868 -14.6413 35.8871
RightForeArm  102.134 73.0871 137.415
RightHand  -0.107809 -0.502396 -2.53092
LeftUpLeg  -17.0179 -0.0441651 1.08755
LeftLeg  23.439 -4.87624 -2.00953
LeftFoot  0.46417 0.468539 -4.56385
LeftToes  -4.03379e-008 1.61488e-010 -5.81581e-011
591
root  1.51013 39.3392 6.01933 161.642 -84.7986 -169.611
RightUpLeg  7.94629 -8.77282 0.253622
RightLeg  12.6407 4.5926 2.06315
RightFoot  -12.4223 -0.132226 -5.14252
RightToes  -2.21189e-009 0 -3.6325e-017
Spine  4.22247 -0.365778 8.43043
Spine1  7.40528 0.502523 -1.91462
HEad  -15.7969 5.60486 -6.54639
LeftShoulder1  0.343455 2.46005 -26.7213
LeftArm  -14.3114 5.98736 -41.7352
LeftForeArm  62.3228 -78.9112 -82.5283
LeftHand  0.0302926 2.48124 -1.78813
RightShoulder  -0.298578 -4.47447 23.6019
RightArm  -15.073 -13.8286 36.2892
RightForeArm  101.781 73.1548 137.174
RightHand  -0.108628 -0.32751 -2.46424
LeftUpLeg  -15.9079 0.494181 0.929612
LeftLeg  12.6304 -5.51201 -1.02697
LeftFoot  0.895533 0.490142 -4.6236
LeftToes  -4.03379e-008 1.61488e-010 -5.81581e-011
592
root  0.426853 39.2978 5.7923 159.321 -84.8781 -167.521
RightUpLeg  10.792 -8.53173 0.449291
RightLeg  11.1751 4.245 1.82223
RightFoot  -13.4504 -0.184259 -5.06403
RightToes  -2.21189e-009 0 -3.6325e-017
Spine  4.1692 -0.386512 7.21469
Spine1  7.84208 0.271888 -1.40122
HEad  -16.027 5.84683 -6.65065
LeftShoulder1  0.325089 2.51902 -26.8338
LeftArm  -14.7834 6.17867 -41.4948
LeftForeArm  65.1971 -78.9702 -85.3886
LeftHand  0.0285681 2.27588 -1.61053
RightShoulder  -0.256497 -4.34077 23.3698
RightArm  -15.1149 -13.3521 36.9543
RightForeArm  101.86 73.2339 136.959
RightHand  -0.105384 -0.54645 -2.46012
LeftUpLeg  -14.7098 2.01074 0.690545
LeftLeg  4.27049 -7.36028 -0.397683
LeftFoot  1.27648 0.491611 -4.51408
LeftToes  -4.03379e-008 1.61488e-010 -5.81581e-011
